<mxfile host="app.diagrams.net" agent="Mozilla/5.0 (Macintosh; Intel Mac OS X 10_15_7) AppleWebKit/537.36 (KHTML, like Gecko) Chrome/127.0.0.0 Safari/537.36" version="24.7.7">
  <diagram name="Page-1" id="WBIvsa03ogtrzBN8DLoZ">
    <mxGraphModel dx="954" dy="606" grid="1" gridSize="10" guides="1" tooltips="1" connect="1" arrows="1" fold="1" page="1" pageScale="1" pageWidth="850" pageHeight="1100" math="0" shadow="0">
      <root>
        <mxCell id="0" />
        <mxCell id="1" parent="0" />
        <mxCell id="CNIrgGLQ1GoPknbsgxuv-1" value="" style="image;html=1;image=img/lib/clip_art/computers/Server_Rack_Empty_128x128.png" vertex="1" parent="1">
          <mxGeometry x="640" y="250" width="110" height="110" as="geometry" />
        </mxCell>
        <mxCell id="CNIrgGLQ1GoPknbsgxuv-2" value="" style="aspect=fixed;sketch=0;html=1;dashed=0;whitespace=wrap;verticalLabelPosition=bottom;verticalAlign=top;fillColor=#2875E2;strokeColor=#ffffff;points=[[0.005,0.63,0],[0.1,0.2,0],[0.9,0.2,0],[0.5,0,0],[0.995,0.63,0],[0.72,0.99,0],[0.5,1,0],[0.28,0.99,0]];shape=mxgraph.kubernetes.icon2;kubernetesLabel=1;prIcon=user" vertex="1" parent="1">
          <mxGeometry x="70" y="260" width="93.75" height="90" as="geometry" />
        </mxCell>
        <mxCell id="CNIrgGLQ1GoPknbsgxuv-3" value="" style="verticalLabelPosition=bottom;html=1;verticalAlign=top;align=center;strokeColor=none;fillColor=#00BEF2;shape=mxgraph.azure.website_generic;pointerEvents=1;" vertex="1" parent="1">
          <mxGeometry x="360" y="260" width="130" height="110" as="geometry" />
        </mxCell>
        <mxCell id="CNIrgGLQ1GoPknbsgxuv-4" value="1. User enters chat message" style="shape=flexArrow;endArrow=classic;html=1;rounded=0;fillColor=#66FAFF;labelBackgroundColor=none;" edge="1" parent="1">
          <mxGeometry width="50" height="50" relative="1" as="geometry">
            <mxPoint x="180" y="290" as="sourcePoint" />
            <mxPoint x="356.25" y="290.5" as="targetPoint" />
          </mxGeometry>
        </mxCell>
        <mxCell id="CNIrgGLQ1GoPknbsgxuv-6" value="&lt;font style=&quot;font-size: 8px;&quot;&gt;2. Widget creates a POST request to the server&lt;/font&gt;" style="shape=flexArrow;endArrow=classic;html=1;rounded=0;fillColor=#66FAFF;labelBackgroundColor=none;" edge="1" parent="1">
          <mxGeometry width="50" height="50" relative="1" as="geometry">
            <mxPoint x="480" y="290" as="sourcePoint" />
            <mxPoint x="656.25" y="290.5" as="targetPoint" />
          </mxGeometry>
        </mxCell>
        <mxCell id="CNIrgGLQ1GoPknbsgxuv-8" value="4. The response is returned to the widget" style="shape=flexArrow;endArrow=classic;html=1;rounded=0;entryX=1;entryY=0.664;entryDx=0;entryDy=0;entryPerimeter=0;fillColor=#66FAFF;fontSize=8;labelBackgroundColor=none;" edge="1" parent="1" target="CNIrgGLQ1GoPknbsgxuv-3">
          <mxGeometry width="50" height="50" relative="1" as="geometry">
            <mxPoint x="650" y="333" as="sourcePoint" />
            <mxPoint x="450" y="290" as="targetPoint" />
            <mxPoint as="offset" />
          </mxGeometry>
        </mxCell>
        <mxCell id="CNIrgGLQ1GoPknbsgxuv-10" value="" style="shape=image;html=1;verticalAlign=top;verticalLabelPosition=bottom;labelBackgroundColor=#ffffff;imageAspect=0;aspect=fixed;image=https://cdn4.iconfinder.com/data/icons/evil-icons-user-interface/64/download-128.png" vertex="1" parent="1">
          <mxGeometry x="676" y="200" width="38" height="38" as="geometry" />
        </mxCell>
        <mxCell id="CNIrgGLQ1GoPknbsgxuv-11" value="3. Server uses the trained model to generate a response" style="text;html=1;align=center;verticalAlign=middle;resizable=0;points=[];autosize=1;strokeColor=none;fillColor=none;fontSize=10;labelBackgroundColor=#66FAFF;" vertex="1" parent="1">
          <mxGeometry x="560" y="180" width="270" height="30" as="geometry" />
        </mxCell>
        <mxCell id="CNIrgGLQ1GoPknbsgxuv-13" value="5. User views response" style="shape=flexArrow;endArrow=classic;html=1;rounded=0;entryX=1;entryY=0.664;entryDx=0;entryDy=0;entryPerimeter=0;fillColor=#66FAFF;fontSize=11;labelBackgroundColor=none;" edge="1" parent="1">
          <mxGeometry width="50" height="50" relative="1" as="geometry">
            <mxPoint x="350" y="330" as="sourcePoint" />
            <mxPoint x="180" y="330" as="targetPoint" />
            <mxPoint as="offset" />
          </mxGeometry>
        </mxCell>
      </root>
    </mxGraphModel>
  </diagram>
</mxfile>
